<?xml version="1.0" encoding="utf-8"?>
<!-- Generator: Adobe Illustrator 25.3.1, SVG Export Plug-In . SVG Version: 6.00 Build 0)  -->
<svg version="1.1" xmlns="http://www.w3.org/2000/svg" xmlns:xlink="http://www.w3.org/1999/xlink" x="0px" y="0px"
	 viewBox="0 0 666 375" style="enable-background:new 0 0 666 375;" xml:space="preserve">
<style type="text/css">
	.st0{fill:#4B1B67;}
	.st1{fill:none;}
</style>
<g id="Layer_1">
	<g>
		<path class="st0" d="M528,130.9c-3.1-1.8-6.6-2.7-10.5-2.7c-3.9,0-7.4,0.9-10.5,2.7c-3.1,1.8-5.5,4.3-7.3,7.4
			c-1.8,3.2-2.7,6.8-2.7,10.9c0,4,0.9,7.7,2.7,10.9c1.8,3.2,4.2,5.6,7.3,7.4c3.1,1.8,6.6,2.7,10.5,2.7c3.8,0,7.4-0.9,10.5-2.7
			c3.1-1.8,5.5-4.3,7.3-7.4c1.8-3.2,2.7-6.8,2.7-10.9s-0.9-7.7-2.7-10.9C533.5,135.1,531.1,132.6,528,130.9z"/>
		<path class="st0" d="M307.9,115.2h14.4l0.3,0.3l32.3,39.5V53.3H53v188.5h254.9V115.2z M172.4,185.4l-0.1-39.4l-22.7,27.6
			l-22.7-26.7v38.5h-16.7v-70.1h14.4l25.1,30.8l24.7-30.8h14.3l0.2,70.1H172.4z M277.6,142.8v14.1h-37.2v14h37.2v14.5h-54.7v-70.1
			h54.7v14.5h-37.2v13H277.6z"/>
		<path class="st0" d="M372.4,53.3v132.1H358l-32.7-39.8v96.3H613V53.3H372.4z M458.1,185.4h-51.9v-70.1h17.6v55.4h34.2V185.4z
			 M550.8,167.7c-3.3,5.5-7.9,9.8-13.7,13c-5.8,3.1-12.3,4.7-19.6,4.7c-7.2,0-13.8-1.6-19.6-4.7c-5.8-3.1-10.4-7.5-13.7-13
			c-3.3-5.5-5-11.7-5-18.6c0-6.8,1.7-13.1,5-18.6c3.3-5.5,7.9-9.8,13.7-13c5.8-3.1,12.4-4.7,19.6-4.7c7.2,0,13.8,1.6,19.6,4.7
			c5.8,3.1,10.4,7.5,13.7,13c3.3,5.5,5,11.7,5,18.6C555.8,156,554.1,162.2,550.8,167.7z"/>
	</g>
	<g>
		<path class="st0" d="M142.5,295.4c-2.9-1-5.9-1.9-9-2.6c-2.6-0.5-5.2-1.3-7.7-2.3c-1.3-0.5-2.2-1.8-2.2-3.2c0-1.4,0.8-2.8,2-3.5
			c2-1.1,4.3-1.6,6.6-1.4c4.6,0.1,9,1.3,13,3.7l0.5,0.3l3.7-9.2l-0.3-0.2c-2.4-1.5-5-2.5-7.7-3.2c-2.9-0.7-6-1.1-9-1.1c0,0,0,0,0,0
			c-3.8-0.1-7.6,0.6-11.2,2c-2.8,1.1-5.2,3-7,5.5c-1.5,2.3-2.3,5-2.3,7.7c-0.1,2.9,0.8,5.7,2.6,7.9c1.6,1.9,3.8,3.4,6.1,4.3
			c2.9,1,5.9,1.9,9,2.6c2.3,0.5,4.2,1,5.6,1.5c1.2,0.4,2.3,0.9,3.2,1.7c0.7,0.6,1.2,1.5,1.2,2.5c0,1.4-0.8,2.7-2,3.3
			c-2.1,1-4.4,1.5-6.7,1.3c-2.8,0-5.6-0.5-8.3-1.3c-2.6-0.8-5-2-7.1-3.5l-0.5-0.3l-4.1,9.1l0.3,0.2c2.6,1.9,5.5,3.2,8.6,4.1
			c3.5,1,7.2,1.5,10.9,1.5c0,0,0.1,0,0.1,0c0.3,0,0.5,0,0.8,0c3.6,0,7.1-0.7,10.5-2c2.8-1.1,5.3-3,7-5.5c1.6-2.3,2.4-4.9,2.4-7.7
			c0.2-2.9-0.8-5.7-2.6-7.9C146.9,297.7,144.8,296.3,142.5,295.4z"/>
		<polygon class="st0" points="183.3,302 208.7,302 208.7,292.5 183.3,292.5 183.3,283.1 208.9,283.1 208.9,273.4 171.4,273.4 
			171.4,321.9 209.2,321.9 209.2,312.1 183.3,312.1 		"/>
		<path class="st0" d="M246.7,284.7c2.3-1.3,5-2,7.7-1.9c4.5-0.1,8.7,1.9,11.6,5.4l0.3,0.4l7.7-7.2l-0.3-0.3c-2.3-2.8-5.3-5-8.6-6.4
			c-3.6-1.5-7.4-2.3-11.4-2.2c-4.7,0-9.3,1-13.4,3.2c-3.9,2.1-7.2,5.2-9.4,8.9c-4.5,8-4.5,17.9,0,25.8c2.3,3.8,5.5,6.9,9.4,8.9h0
			c4,2.1,8.5,3.2,13,3.2c0.3,0,0.5,0,0.8,0c3.8,0,7.5-0.7,11-2.2c3.3-1.4,6.3-3.6,8.6-6.5l0.3-0.3l-7.7-7.2l-0.3,0.4
			c-2.8,3.5-7,5.5-11.6,5.5c-2.7,0.1-5.3-0.6-7.7-1.9c-2.2-1.2-4-3-5.2-5.2c-2.5-4.8-2.5-10.5,0-15.3
			C242.7,287.8,244.5,286,246.7,284.7z"/>
		<path class="st0" d="M325.4,300.1c0.3,3.3-0.7,6.7-2.6,9.3c-2,2.1-4.7,3.1-7.6,3c0,0,0,0,0,0c-3.4,0-5.9-1-7.6-3
			c-1.7-2-2.5-5.2-2.5-9.3v-26.7h-11.9v27.1c0,7.1,2,12.6,5.8,16.4l0.8,0.8v-0.2c4.5,3.4,10,5.1,15.4,5.1c5.7,0,11.5-1.9,16.2-5.7
			c3.9-3.8,5.8-9.4,5.8-16.4v-27.1h-11.8L325.4,300.1z"/>
		<path class="st0" d="M401.9,297.6c1.7-4.1,1.8-8.7,0.1-12.9c-1.7-4.2-4.9-7.4-9-9.2c-3.6-1.5-7.3-2.2-11.2-2.1h-21.1v48.5h11.9
			v-13.3h9.4l9.2,13.3l12.9,0l-10.9-15.6C397.2,304.6,400.2,301.5,401.9,297.6z M388.4,296.9c-2.1,1.5-4.7,2.3-7.3,2.1h-8.5v-15.7
			l8.5,0c2.6-0.2,5.1,0.5,7.2,2l0.1,0.1C391.6,288.6,391.6,293.8,388.4,296.9z"/>
		<rect x="424.3" y="273.4" class="st0" width="11.9" height="48.5"/>
		<polygon class="st0" points="454.8,283.3 470,283.3 470,321.9 482,321.9 482,283.3 497.2,283.3 497.2,273.4 454.8,273.4 		"/>
		<polygon class="st0" points="545.6,273.4 533.2,294.1 520.8,273.6 520.7,273.4 508,273.4 526.7,304.6 526.7,321.9 538.7,321.9 
			538.7,304.7 557.5,273.4 		"/>
	</g>
</g>
<g id="Null">
	<g>
		<rect x="-136" y="-136" class="st1" width="938" height="647"/>
	</g>
</g>
</svg>
